Patient4_TMGait_0pt6_02_left_33_EMG.mot
version=1
nRows=37
nColumns=33
inDegrees=no
endheader
time	1LAddLong	2LGlutMax	3LGlutMed	4LIliopsoas	5LSemiMemb	6LBicFemLong	7LRecFem	8LVastMed	9LVastLat	10LGasMed	11LTibAnt	12lTibPost	13LPeroneusLong	14LSol	15LExtDigLong	16LFlexDigLong	17RAddLong	18RGlutMax	19RGlutMed	20RIliopsoas	21RSemiMemb	22RBicFemLong	23RRecFem	24RVastMed	25RVastLat	26RGasMed	27RTibAnt	28RTibPost	29RPeroneusLong	30RSol	31RExtDigLong	32RFlexDigLong
40.715	0.033112	0.13107	-0.033417	0.017853	-0.081482	-0.24521	-0.29739	0.001526	0.073395	0.10681	-0.088043	-0.042725	0.17487	0.085144	-0.058441	-0.015717	0.034637	-0.098877	-0.29923	0.22308	0.006409	-0.027161	0.37125	-0.031281	0.042572	-0.00473	-0.40054	-0.005798	0.07431	0.003357	-0.000458	-0.010223
40.716	0.032959	0.064545	-0.05722	0.019073	-0.059814	-0.3009	-0.28534	-0.001831	-0.14999	0.21118	-0.041504	-0.048676	0.56976	-0.029297	-0.072937	-0.014038	0.021057	-0.25116	-0.58044	0.12131	0.015411	-0.056	0.34119	-0.013123	0.067139	-0.004425	0.057678	-0.011597	-0.056458	0.027771	0.001526	-0.00946
40.717	0.034485	-0.025482	-0.11017	-0.004883	-0.037537	-0.49194	-0.28442	-0.008087	-0.24689	0.00824	0.001831	-0.04303	0.024109	-0.2446	-0.13779	-0.014191	-0.010376	-0.41916	-0.64133	0.077362	0.031586	-0.067596	0.35736	-0.045319	0.034943	-0.000305	0.041809	-0.00824	-0.12207	0.062256	-0.005798	-0.007172
40.718	0.019684	0.011902	-0.12436	-0.02243	-0.030212	-0.53055	-0.30151	-0.003815	-0.19226	-0.242	0.034943	-0.0354	-0.48416	-0.45685	-0.13947	-0.028076	-0.036926	-0.47577	-0.71259	0.087128	0.027161	-0.022278	0.37827	-0.059814	0.0383	-0.006104	-0.33264	-0.009918	-0.11978	0.012054	-0.00412	-0.00061
40.719	0.0177	0.014801	-0.15579	-0.00351	-0.045319	0.093536	-0.35721	0.001373	-0.11368	-0.17777	0.005493	-0.035248	-0.39246	-0.30395	-0.031128	-0.025024	-0.046234	-0.63599	-0.80841	0.086975	0.0383	0.000916	0.35309	-0.035706	0.031128	-0.001526	-0.22278	-0.005341	-0.1648	-0.066986	0.000153	-0.011597
40.72	0.018005	0.024414	-0.17685	-0.009003	-0.06073	0.30807	-0.45395	-0.016937	-0.019684	0.18936	-0.023651	-0.034485	0.18707	-0.093689	0.073853	-0.01236	-0.023041	-0.71243	-0.58166	-0.005493	0.045013	0.013733	0.40222	-0.022125	0.015717	-0.001678	0.24399	-0.011139	-0.11551	-0.12054	0.005646	-0.002899
40.721	0.016479	0.007477	-0.31067	0.000305	-0.091095	0.35217	-0.51865	-0.019073	0.087585	0.06546	-0.015564	-0.032959	0.018616	-0.017548	0.15152	-0.029449	-0.016022	-0.82169	-0.4509	-0.072784	0.070343	0.11673	0.42999	-0.07019	0.019531	0.009613	0.23117	-0.00946	0.058594	-0.17777	-0.003357	-0.001678
40.722	0.013885	0.079193	-0.34637	0.021973	-0.08606	0.29739	-0.53543	0.011902	0.10895	-0.045929	0.010529	-0.030975	-0.031128	-0.24872	0.08194	-0.037689	-0.044403	-0.94589	-0.27145	-0.082092	0.034943	0.11612	0.38269	-0.024414	0.025024	0.002747	0.17822	-0.002594	-0.00885	-0.08255	-0.002747	-0.008698
40.723	0.00824	0.16708	-0.18234	0.01709	-0.075836	-0.2211	-0.57953	0.019379	0.045776	-0.033875	0.020447	-0.026398	-0.12512	-0.51224	0.022278	-0.030365	-0.045776	-0.96207	-0.083466	-0.006866	0.001984	0.078125	0.383	0.029449	0.034637	-0.002289	0.33783	-0.010681	-0.12772	-0.06012	-0.004578	-0.014343
40.724	-0.004272	0.32486	-0.043488	0.011902	-0.065308	-0.13748	-0.53589	0.022888	0.11978	0.013123	-0.016937	-0.013885	-0.29266	-0.42725	0.035706	-0.03418	-0.061493	-1.0811	-0.48996	0.11185	0.002899	0.053558	0.38132	0.035553	0.03006	0.002747	0.29648	-0.00946	-0.13092	-0.045319	0.000916	-0.018616
40.725	-0.003662	0.39566	0.008698	0.007782	-0.062714	-0.22156	-0.3891	0.011902	0.22186	-0.18555	-0.039368	-0.005188	0.38208	-0.27298	0.14847	-0.036316	-0.010529	-1.3144	-0.63217	0.16357	0.015411	0.025177	0.38437	0.10757	0.040894	0.002594	-0.32654	-0.011902	-0.039978	0.060577	-0.007629	-0.011902
40.726	-0.003967	0.53284	0.043488	0.03006	-0.070038	-0.47989	-0.32059	-0.008392	0.16541	-0.27969	-0.007477	-0.002289	1.0075	-0.072937	0.14221	-0.018311	0.035248	-1.4265	-0.42191	0.13153	0.010529	0.027466	0.36804	0.13763	0.029907	0.007477	-0.68451	-0.012207	0.005951	0.052795	-0.006256	-0.017395
40.727	-0.005341	0.77103	0.00061	0.016479	-0.061035	-0.20721	-0.32989	-0.007019	0.16434	-0.19867	-0.038605	-0.002289	1.2697	0.047455	0.092926	-0.014343	0.078278	-1.4912	-0.29755	0.12528	0.017853	0.031891	0.35629	0.13687	0.033722	0.011597	-0.4863	-0.010834	0.004272	0.020294	-0.005493	-0.013885
40.728	-0.010681	0.90454	0.000763	-0.011902	-0.038147	0.22568	-0.35645	-0.006104	0.29236	0.45654	0.04364	0.002594	1.0252	0.094299	0.15839	-0.011902	0.097504	-1.64	-0.24262	0.023041	0.010529	0.044403	0.37003	0.18585	0.027771	0.00885	-0.3157	-0.009766	0.053253	0.073242	-0.007782	-0.010834
40.729	-0.012054	0.97565	0.050049	0.013428	-0.037537	0.39795	-0.48981	-0.002594	0.32883	1.0333	0.0914	-0.002747	0.19943	0.22171	0.076141	-0.020905	0.1561	-1.7404	-0.19791	-0.032959	0.012817	0.04715	0.35294	0.17303	0.031433	0.001984	-0.27512	-0.006256	0.029602	0.11505	-0.003052	-0.010834
40.73	-0.017548	0.90546	-0.041351	0.027924	-0.064545	0.80994	-0.58319	0.00824	0.34683	0.80109	0.044708	-0.008698	-1.0413	-0.01358	-0.2417	-0.012512	0.17258	-1.783	-0.10376	0.030823	0.01297	0.056152	0.32181	0.15472	0.034943	-0.005188	-0.31784	-0.007477	0.013733	0.14862	-0.004272	-0.006866
40.731	-0.01358	0.77133	-0.009155	0.009308	-0.090332	0.89279	-0.53955	0.011444	0.38834	0.084991	0.066528	-0.004272	-1.0065	-0.1239	-0.28595	-0.008698	0.19531	-1.8394	0.054016	0.079041	0.012207	0.069275	0.30838	0.096741	0.0177	0.004272	-0.17487	-0.001526	0.045624	0.1268	-0.007172	-0.00946
40.732	-0.014954	0.71777	0.056305	0.010529	-0.10284	0.70252	-0.50034	0.010223	0.34058	-0.15442	0.019684	0.005493	-0.69351	-0.005798	-0.003967	-0.000916	0.20309	-1.7737	0.010529	0.029449	0.024872	0.065765	0.30624	0.04303	0.011749	0.001526	0.21683	-0.003052	0.000153	0.02533	-0.00473	-0.006866
40.733	-0.011749	0.72067	0.03067	-0.013123	-0.094452	0.054474	-0.46982	0.001831	0.30701	-0.19196	-0.056305	0.020752	-0.50293	0.14267	0.2681	0.016632	0.1651	-1.8164	-0.036469	-0.045319	0.018463	0.072937	0.32715	-0.001221	0.023804	0.001221	0.54794	-0.007935	-0.12512	-0.044861	-0.002441	-0.001678
40.734	-0.009918	0.72647	-0.023193	-0.001221	-0.10086	-0.44052	-0.43823	-0.018158	0.045013	-0.26169	-0.090942	0.024567	0.3775	0.14175	0.19882	0.03006	0.15793	-1.813	0.010376	-0.059357	0.008698	0.068054	0.31494	-0.052643	0.024109	-0.004272	0.47089	-0.006866	-0.16953	0.009766	-0.00473	-0.002136
40.735	-0.023651	0.72311	0.077209	-0.00061	-0.12482	-0.40314	-0.38589	-0.0177	-0.033264	-0.029602	-0.048065	0.03418	0.36972	-0.006256	0.05249	0.017853	0.12756	-1.7807	0.21759	0.004272	-0.005035	0.069733	0.32028	-0.04303	0.00946	-0.003357	0.49332	-0.005341	-0.17853	-0.00061	0	-0.002136
40.736	-0.032501	0.69778	0.067444	-0.02243	-0.18601	-0.46799	-0.32577	-0.010529	0.10437	0.042572	-0.007935	0.030518	-0.20966	0.046844	-0.090485	0.007782	-0.013275	-1.7319	0.20157	0.12955	-0.017548	0.085907	0.38376	-0.052948	-0.014954	-0.000305	0.48904	-0.006256	-0.15182	-0.036011	-0.002441	-0.002136
40.737	-0.025635	0.81757	-0.024872	-0.024261	-0.1387	-0.49103	-0.34714	-0.000458	0.19898	-0.22827	-0.026703	0.018158	-0.43015	0.095978	-0.003052	0.013275	-0.10803	-1.6643	0.1767	0.22263	-0.01709	0.0914	0.38483	-0.030975	-0.001678	0.002441	0.10788	-0.005798	-0.070801	-0.070648	-0.000916	-0.003662
40.738	-0.005798	0.84869	-0.055695	-0.019379	0.051575	-0.30533	-0.4155	-0.017853	0.13748	-0.20523	-0.075378	-0.004883	0.83527	0.097351	0.1265	0.006409	-0.21637	-1.5778	0.11231	0.19424	-0.018921	0.12512	0.37949	-0.028839	0.020599	0.002441	-0.36545	-0.003204	-0.028076	-0.050659	-0.005646	0.001678
40.739	-0.003052	0.84579	0.00412	-0.004883	0.10208	0.19165	-0.40161	-0.016937	-0.066681	-0.13825	-0.13458	-0.011444	0.76706	0.013733	0.097961	0.004578	-0.2327	-1.5067	0.11108	0.095367	-0.018921	0.15182	0.35172	-0.051117	0.019379	0.005493	-0.50186	-0.006561	0.000763	-0.019073	-0.004272	0.001526
40.74	-0.002594	0.78873	0.023651	-0.002899	0.058899	0.52048	-0.38116	-0.006866	-0.40451	-0.081635	-0.090485	-0.014038	0.18738	0.001831	-0.028229	0.009766	-0.17517	-1.4024	0.15488	0.072784	-0.040131	0.19134	0.35049	-0.04303	0.00885	0.004578	-0.46448	-0.001678	-0.080872	-0.012207	-0.00061	-0.003052
40.741	-0.016785	0.62164	0.055237	-0.006561	-0.098114	0.61111	-0.48981	-0.000458	-0.32562	-0.11108	0.053406	-0.020447	0.50827	-0.022583	-0.345	-0.005188	-0.091858	-1.319	0.233	0.016937	-0.045929	0.24674	0.32989	-0.019379	0.025787	0.005035	-0.25024	0	-0.11673	-0.02533	-0.000916	-0.001984
40.742	-0.010071	0.45441	0.15991	0.012207	-0.10788	0.31769	-0.63446	0.005341	-0.023499	-0.088806	0.14877	-0.021515	-0.54001	-0.08667	-0.35324	-0.002136	0.004578	-1.2799	0.21179	0.066528	-0.029144	0.24689	0.32028	0.006714	0.024109	0.002136	-0.11246	-0.004883	-0.11063	-0.027008	-0.003052	-0.012512
40.743	0.00885	0.25391	0.073547	-0.001373	0.025024	-0.019836	-0.55054	-0.004272	-0.10498	-0.064087	0.32715	-0.020294	-0.67795	-0.11658	-0.065308	-0.018921	0.06897	-1.2608	0.19363	0.038757	-0.032959	0.27176	0.28549	0.048981	0.020294	0.005035	-0.076141	-0.002136	-0.030823	-0.014038	-0.005035	-0.01709
40.744	0.003357	0.16892	-0.065613	0.000305	0.06424	0.35721	-0.45166	-0.003052	-0.054626	-0.11185	0.32242	-0.018616	-0.16098	-0.053101	-0.24445	-0.011597	0.083618	-1.1989	0.25207	-0.052338	-0.003204	0.27542	0.27069	0.10773	0.020142	0.003662	-0.040283	-0.000763	0.12817	-0.01297	-0.001221	-0.010834
40.745	-0.011139	0.1648	0.041046	0.018158	0.024261	0.60944	-0.40604	0.015411	0.1535	-0.10681	0.12726	-0.018158	-0.26001	-0.083923	-0.30609	-0.015869	0.041809	-1.2209	0.40329	-0.14938	0.023346	0.28336	0.26016	0.091095	0.019531	0.013123	-0.030212	-0.003815	0.19028	0.027618	-0.002441	-0.018768
40.746	-0.016785	0.21103	0.07782	0.034943	-0.008545	0.27054	-0.43304	0.018921	0.31952	0.099792	-0.06485	-0.023041	-0.024719	-0.40726	-0.13748	-0.003357	-0.013428	-1.2636	0.50446	-0.17136	0.039063	0.20172	0.3125	0.11276	0.007935	0.009766	-0.052185	-0.007019	0.07782	0.038605	-0.002289	-0.011902
40.747	-0.011597	0.20905	0.10391	0.014191	-0.068512	0.43274	-0.37277	0.012817	0.21378	0.22537	-0.15106	-0.020142	0.13123	-0.49149	-0.039978	-0.023651	-0.06897	-1.1772	0.44235	-0.10117	0.053406	0.18875	0.40588	0.10788	-0.009003	0.002747	-0.021515	-0.003967	-0.049286	0.020599	0.001068	-0.01709
40.748	-0.027008	0.2092	0.050201	0.009918	-0.061646	0.38635	-0.35706	0.013428	0.052643	0.26779	-0.10757	-0.021362	0.13199	-0.16632	0.24567	-0.027161	-0.080261	-1.1491	0.35019	-0.04364	0.022888	0.21912	0.39475	0.10101	-0.025787	0.001526	0.041199	0.000153	-0.009918	0.015106	-0.001678	-0.010223
40.749	-0.00946	0.18356	-0.084839	0.014648	-0.16144	0.43579	-0.27145	-0.005188	-0.058899	0.19302	-0.10101	-0.020447	0.16388	-0.16571	0.60791	-0.013733	-0.059509	-1.0806	0.41367	-0.057831	-0.012207	0.26169	0.40909	0.049286	-0.043488	-0.000153	0.14358	-0.000763	0.067902	-0.009155	-0.000916	-0.010376
40.75	-0.000763	0.14893	-0.013733	0.010681	-0.1088	-0.37872	-0.18723	-0.015717	-0.21225	0.13992	-0.090027	-0.023499	-0.024109	-0.30212	0.36316	-0.017548	-0.019073	-0.98618	0.42557	-0.1059	-0.060577	0.25681	0.39475	-0.076599	-0.069275	-0.015106	0.18402	0.005188	0.10132	-0.005341	-0.000305	-0.013123
40.751	0.009918	0.054016	0.045319	0.018463	0.073242	-1.3768	-0.17593	-0.013428	-0.20798	0.29724	-0.079498	-0.021515	-0.16144	-0.5545	0.20203	-0.016022	0.030975	-0.96374	0.39719	-0.072479	-0.089569	0.26749	0.39352	-0.10269	-0.070496	-0.030212	0.17807	-0.002289	0.079193	0.006256	-0.007324	-0.005035
